<svg xmlns="http://www.w3.org/2000/svg" xmlns:xlink="http://www.w3.org/1999/xlink" width="1920" zoomAndPan="magnify" viewBox="0 0 1440 809.999993" height="1080" preserveAspectRatio="xMidYMid meet" version="1.0"><path fill="#ffffff" d="M 387.105469 587.84375 L 371.03125 579.660156 C 370.175781 576.273438 369.824219 572.839844 369.972656 569.355469 C 371.855469 561.285156 374.5625 553.453125 377.863281 542.265625 C 365.023438 553.101562 354.71875 562.226562 343.882812 570.707031 C 322.878906 587.15625 301.738281 603.351562 280.460938 619.289062 C 278.996094 620.5 277.464844 621.625 275.871094 622.664062 C 274.28125 623.703125 272.632812 624.648438 270.933594 625.5 C 269.230469 626.355469 267.488281 627.109375 265.703125 627.761719 C 263.917969 628.417969 262.101562 628.972656 260.253906 629.421875 C 258.40625 629.871094 256.539062 630.214844 254.652344 630.453125 C 252.765625 630.691406 250.871094 630.824219 248.96875 630.847656 C 247.066406 630.875 245.171875 630.789062 243.277344 630.601562 C 241.386719 630.410156 239.507812 630.113281 237.652344 629.714844 C 236.378906 628.796875 235.183594 627.785156 234.070312 626.683594 C 232.953125 625.582031 231.925781 624.402344 230.992188 623.144531 C 230.058594 621.882812 229.226562 620.558594 228.496094 619.171875 C 227.765625 617.785156 227.148438 616.347656 226.640625 614.863281 C 226.132812 613.382812 225.738281 611.867188 225.464844 610.324219 C 225.191406 608.78125 225.035156 607.222656 225 605.65625 C 224.964844 604.089844 225.050781 602.527344 225.253906 600.972656 C 225.460938 599.417969 225.785156 597.886719 226.226562 596.382812 C 234.058594 561.992188 243.246094 528.132812 264.210938 499.925781 C 264.207031 497.417969 263.914062 494.945312 263.324219 492.503906 C 262.265625 490.722656 260.96875 489.132812 259.4375 487.734375 C 257.4375 487.734375 254.609375 487.734375 253.550781 488.796875 C 224.148438 522.707031 191.488281 553.109375 155.5625 580.011719 C 148.023438 585.902344 139.78125 590.964844 132.300781 596.972656 C 129.957031 598.902344 127.441406 600.566406 124.742188 601.960938 C 122.046875 603.355469 119.234375 604.453125 116.304688 605.25 C 113.378906 606.046875 110.398438 606.527344 107.367188 606.691406 C 104.335938 606.851562 101.320312 606.695312 98.324219 606.21875 C 97.289062 605.445312 96.304688 604.609375 95.375 603.714844 C 94.445312 602.816406 93.574219 601.867188 92.765625 600.859375 C 91.957031 599.851562 91.214844 598.796875 90.539062 597.699219 C 89.863281 596.597656 89.261719 595.457031 88.730469 594.28125 C 88.199219 593.101562 87.746094 591.894531 87.367188 590.660156 C 86.988281 589.425781 86.691406 588.171875 86.472656 586.898438 C 86.253906 585.625 86.113281 584.34375 86.058594 583.054688 C 86 581.765625 86.027344 580.476562 86.132812 579.1875 C 86.613281 568.441406 88.90625 558.09375 93.023438 548.152344 C 110.101562 499.394531 136.1875 455.289062 164.335938 412.714844 C 190.097656 373.359375 218.792969 336.28125 250.429688 301.472656 C 269.347656 281.109375 289.566406 262.128906 311.082031 244.53125 C 319.101562 238.25 327.625 232.746094 336.648438 228.027344 C 345.675781 223.304688 355.054688 219.445312 364.789062 216.441406 C 367.808594 215.335938 370.90625 214.515625 374.078125 213.980469 C 377.25 213.441406 380.441406 213.199219 383.65625 213.25 C 386.875 213.300781 390.058594 213.644531 393.210938 214.277344 C 396.363281 214.914062 399.433594 215.832031 402.417969 217.03125 C 403.933594 217.5625 405.402344 218.199219 406.828125 218.941406 C 408.25 219.683594 409.617188 220.523438 410.921875 221.460938 C 412.226562 222.394531 413.457031 223.417969 414.617188 224.527344 C 415.777344 225.640625 416.851562 226.828125 417.84375 228.089844 C 418.835938 229.355469 419.734375 230.683594 420.535156 232.074219 C 421.339844 233.464844 422.039062 234.90625 422.636719 236.394531 C 423.234375 237.886719 423.722656 239.410156 424.105469 240.96875 C 424.488281 242.53125 424.757812 244.109375 424.914062 245.707031 C 425.804688 250.472656 426.019531 255.265625 425.5625 260.089844 C 425.101562 264.914062 423.980469 269.582031 422.203125 274.09375 C 417.90625 283.867188 414.019531 293.820312 410.425781 303.183594 L 417.964844 329.386719 C 410.480469 339.613281 402.492188 349.425781 393.996094 358.832031 C 371.507812 383.125 351.878906 409.546875 335.109375 438.09375 C 312.722656 471.960938 292.957031 507.292969 275.808594 544.089844 C 274.347656 548.101562 272.382812 551.851562 269.921875 555.339844 C 267.238281 558.777344 264.875 562.425781 262.835938 566.28125 C 260.796875 570.136719 259.109375 574.144531 257.777344 578.296875 C 256.449219 582.453125 255.492188 586.691406 254.910156 591.015625 C 254.328125 595.339844 254.128906 599.679688 254.316406 604.039062 C 279.34375 595.675781 298.363281 578.714844 317.207031 562.816406 C 352.070312 532.960938 385.398438 501.339844 419.199219 470.246094 C 423.625 465.628906 427.550781 460.625 430.976562 455.230469 C 448.644531 430.910156 465.488281 406.53125 482.859375 382.269531 C 484.8125 379.703125 487.011719 377.367188 489.453125 375.261719 C 519.957031 345.816406 536.917969 307.835938 554.289062 270.085938 C 565.988281 244.945312 580.296875 221.390625 597.21875 199.421875 C 602.503906 192.796875 608.507812 186.910156 615.238281 181.757812 C 615.886719 181.230469 616.578125 180.757812 617.308594 180.347656 C 618.039062 179.9375 618.796875 179.59375 619.585938 179.3125 C 620.375 179.03125 621.183594 178.820312 622.007812 178.675781 C 622.832031 178.53125 623.664062 178.457031 624.5 178.453125 C 625.339844 178.453125 626.171875 178.519531 626.996094 178.660156 C 627.824219 178.796875 628.632812 179.003906 629.421875 179.28125 C 630.210938 179.558594 630.972656 179.898438 631.707031 180.304688 C 632.441406 180.710938 633.132812 181.175781 633.785156 181.699219 C 642.441406 197.007812 635.023438 210.671875 628.546875 223.917969 C 622.066406 237.167969 614.414062 250.183594 606.875 263.019531 C 596.039062 281.335938 584.617188 299.355469 573.839844 317.667969 C 562.0625 337.867188 551.816406 359.300781 538.507812 378.324219 C 517.660156 407.765625 506.238281 440.800781 493.515625 473.660156 C 487.957031 489.894531 484.757812 506.578125 483.917969 523.714844 C 484.183594 527.988281 485.007812 532.148438 486.390625 536.199219 C 489.867188 536.464844 493.28125 536.128906 496.636719 535.199219 C 523.433594 520.359375 545.101562 501.042969 555.523438 470.777344 C 562.171875 451.5625 570.023438 432.855469 579.082031 414.65625 C 586.046875 401.457031 594.015625 388.894531 602.988281 376.96875 C 606.535156 372.894531 610.753906 369.714844 615.648438 367.429688 C 616.324219 366.988281 617.03125 366.605469 617.765625 366.273438 C 618.5 365.945312 619.257812 365.675781 620.035156 365.46875 C 620.8125 365.257812 621.601562 365.113281 622.402344 365.027344 C 623.207031 364.941406 624.007812 364.921875 624.8125 364.964844 C 625.617188 365.003906 626.414062 365.109375 627.203125 365.277344 C 627.988281 365.445312 628.757812 365.675781 629.511719 365.964844 C 630.261719 366.253906 630.988281 366.597656 631.683594 367.003906 C 632.382812 367.40625 633.042969 367.863281 633.667969 368.371094 C 634.347656 368.820312 634.984375 369.324219 635.578125 369.875 C 636.175781 370.429688 636.71875 371.03125 637.21875 371.671875 C 637.714844 372.316406 638.15625 372.996094 638.542969 373.710938 C 638.929688 374.429688 639.253906 375.171875 639.519531 375.941406 C 639.78125 376.710938 639.980469 377.496094 640.117188 378.296875 C 640.253906 379.097656 640.324219 379.90625 640.328125 380.71875 C 640.328125 381.535156 640.265625 382.34375 640.136719 383.144531 C 640.007812 383.949219 639.816406 384.734375 639.558594 385.507812 C 634.453125 400.664062 627.835938 415.128906 619.710938 428.90625 C 603.988281 452.109375 586.675781 473.898438 569.011719 498.453125 C 570.894531 508.40625 559.707031 519.769531 567.65625 534.667969 C 574.203125 531.109375 580.523438 527.183594 586.617188 522.890625 C 614.234375 500.457031 635.257812 472.128906 656.578125 444.101562 C 667.175781 429.28125 676.242188 413.578125 683.78125 396.988281 C 702.15625 359.714844 719.113281 321.671875 740.902344 286.222656 C 752.089844 268.085938 761.21875 248.652344 772.761719 230.808594 C 781.003906 217.796875 789.484375 203.605469 804.558594 196.65625 C 818.28125 202.542969 822.578125 207.785156 819.457031 217.03125 C 815.980469 228.289062 811.449219 239.105469 805.855469 249.476562 C 788.71875 278.921875 770.523438 307.953125 752.855469 336.867188 C 738.78125 359.480469 723.945312 381.5625 709.929688 404.175781 C 705.503906 411.597656 701.714844 419.332031 698.5625 427.375 C 688.492188 452.167969 678.660156 476.960938 669.121094 501.867188 C 668.003906 504.132812 667.097656 506.480469 666.394531 508.90625 C 665.695312 511.332031 665.210938 513.800781 664.945312 516.3125 C 664.675781 518.824219 664.632812 521.339844 664.808594 523.859375 C 664.988281 526.378906 665.382812 528.863281 666 531.3125 C 670.921875 528.566406 675.53125 525.367188 679.824219 521.710938 C 684.113281 518.054688 688.007812 514.011719 691.496094 509.582031 C 724.210938 472.957031 754.1875 434.207031 781.417969 393.339844 C 789.898438 381.03125 797.257812 368.078125 805.5625 355.710938 C 811.449219 346.816406 818.28125 346.464844 829.527344 353.648438 C 832.414062 364.308594 825.523438 371.316406 820.34375 379.558594 C 801.734375 407.941406 783.949219 437.386719 772.527344 469.773438 C 770.050781 476.664062 766.636719 483.847656 771.9375 491.152344 C 783.714844 491.976562 791.546875 484.144531 799.496094 477.605469 C 823.023438 457.367188 844.476562 435.125 863.859375 410.886719 C 869.820312 403.425781 876.140625 396.28125 882.820312 389.453125 C 886.628906 387.023438 890.730469 385.296875 895.128906 384.269531 L 902.019531 393.929688 L 887.59375 429.261719 C 900.074219 415.773438 907.4375 401.054688 922.925781 391.511719 L 935.585938 395.753906 C 936.410156 399.40625 937.703125 401.640625 937.117188 403.46875 C 933.699219 413.539062 929.753906 423.488281 925.988281 433.441406 C 923.394531 440.273438 920.746094 447.101562 918.683594 452.460938 C 918.890625 453.023438 919.152344 453.5625 919.46875 454.070312 C 919.785156 454.582031 920.152344 455.054688 920.5625 455.488281 C 920.976562 455.925781 921.425781 456.316406 921.917969 456.660156 C 922.410156 457.007812 922.929688 457.296875 923.480469 457.539062 C 924.03125 457.777344 924.597656 457.957031 925.183594 458.082031 C 925.773438 458.207031 926.367188 458.269531 926.964844 458.277344 C 927.566406 458.28125 928.160156 458.222656 928.75 458.105469 C 929.335938 457.992188 929.910156 457.816406 930.460938 457.585938 C 950.4375 453.4375 969.320312 446.371094 987.113281 436.386719 C 1009.546875 424.136719 1033.21875 414.242188 1055.832031 403.585938 L 1069.964844 409.472656 C 1068.671875 424.253906 1067.316406 438.917969 1066.019531 453.167969 C 1078.152344 462.886719 1086.925781 454.640625 1098.230469 449.871094 C 1102.175781 440.273438 1105.828125 429.082031 1111.1875 418.777344 C 1122.257812 397.34375 1136.625 379.382812 1165.011719 377.027344 L 1176.257812 389.980469 C 1173.960938 425.667969 1146.8125 441.507812 1124.671875 460.648438 C 1124.121094 464.375 1123.953125 468.121094 1124.167969 471.882812 C 1124.382812 475.644531 1124.976562 479.347656 1125.949219 482.988281 C 1126.917969 486.628906 1128.25 490.132812 1129.941406 493.5 C 1131.628906 496.867188 1133.640625 500.03125 1135.980469 502.988281 C 1140.601562 506.203125 1145.453125 509.023438 1150.535156 511.453125 C 1155.613281 513.878906 1160.855469 515.882812 1166.261719 517.457031 C 1171.667969 519.035156 1177.164062 520.164062 1182.753906 520.851562 C 1188.34375 521.535156 1193.953125 521.761719 1199.578125 521.535156 C 1233.910156 521.6875 1267.769531 517.761719 1301.160156 509.757812 C 1316.644531 505.753906 1332.429688 502.8125 1348.269531 499.453125 C 1349.429688 499.148438 1350.605469 498.917969 1351.796875 498.765625 C 1352.988281 498.613281 1354.183594 498.535156 1355.382812 498.535156 C 1356.585938 498.535156 1357.78125 498.613281 1358.972656 498.769531 C 1360.160156 498.921875 1361.335938 499.152344 1362.5 499.457031 C 1363.660156 499.761719 1364.796875 500.140625 1365.910156 500.59375 C 1367.019531 501.046875 1368.101562 501.566406 1369.144531 502.160156 C 1370.191406 502.75 1371.191406 503.40625 1372.152344 504.125 C 1373.113281 504.84375 1374.023438 505.625 1374.886719 506.460938 C 1375.195312 506.898438 1375.480469 507.351562 1375.742188 507.816406 C 1376.003906 508.28125 1376.242188 508.761719 1376.453125 509.253906 C 1376.664062 509.746094 1376.847656 510.246094 1377.007812 510.757812 C 1377.167969 511.265625 1377.300781 511.785156 1377.402344 512.308594 C 1377.507812 512.835938 1377.585938 513.363281 1377.636719 513.894531 C 1377.683594 514.429688 1377.707031 514.960938 1377.699219 515.496094 C 1377.691406 516.03125 1377.660156 516.566406 1377.597656 517.097656 C 1377.535156 517.628906 1377.441406 518.15625 1377.324219 518.675781 C 1377.207031 519.199219 1377.0625 519.710938 1376.890625 520.21875 C 1376.71875 520.726562 1376.523438 521.222656 1376.300781 521.707031 C 1376.074219 522.195312 1375.828125 522.667969 1375.554688 523.128906 C 1375.28125 523.585938 1374.984375 524.03125 1374.664062 524.460938 C 1374.34375 524.890625 1374.003906 525.300781 1373.640625 525.695312 C 1373.277344 526.085938 1372.894531 526.460938 1372.492188 526.8125 C 1372.089844 527.167969 1371.671875 527.496094 1371.234375 527.804688 C 1370.796875 528.113281 1370.347656 528.402344 1369.878906 528.664062 L 1358.101562 520.890625 C 1343.734375 523.714844 1329.070312 526.777344 1314.46875 529.605469 C 1278.742188 536.636719 1242.683594 540.71875 1206.289062 541.851562 C 1195.066406 542.511719 1183.917969 541.84375 1172.851562 539.855469 C 1161.78125 537.863281 1151.101562 534.605469 1140.808594 530.074219 C 1137.070312 528.621094 1133.515625 526.8125 1130.140625 524.644531 C 1126.769531 522.472656 1123.644531 519.992188 1120.773438 517.195312 C 1117.898438 514.394531 1115.335938 511.339844 1113.078125 508.027344 C 1110.816406 504.714844 1108.914062 501.207031 1107.359375 497.511719 C 1104.535156 490.679688 1102.765625 483.320312 1100.292969 475.371094 C 1082.628906 478.371094 1066.257812 484.496094 1056.714844 474.898438 C 1042.644531 461.296875 1045.882812 447.101562 1042.582031 435.796875 C 1032.984375 433.441406 1027.390625 439.152344 1020.914062 442.214844 C 1000.65625 451.8125 980.632812 461.882812 960.140625 470.953125 C 955.644531 472.957031 951.03125 474.644531 946.300781 476.011719 C 941.570312 477.378906 936.769531 478.417969 931.894531 479.125 C 927.023438 479.832031 922.125 480.199219 917.199219 480.230469 C 912.273438 480.265625 907.371094 479.957031 902.492188 479.316406 L 889.183594 462.414062 C 873.398438 472.25 865.628906 494.15625 840.835938 492.917969 C 838.832031 487.792969 836.59375 482.140625 833.945312 475.605469 C 827.097656 481.925781 819.890625 487.816406 812.332031 493.269531 C 801.660156 500.257812 790.550781 506.460938 779.003906 511.878906 C 770.757812 515.765625 762.160156 514.117188 750.324219 503.988281 C 749.675781 501.339844 747.675781 493.269531 745.671875 485.378906 C 742.199219 486.5 739.785156 486.558594 738.546875 487.792969 C 721.882812 505.753906 705.628906 524.070312 688.730469 541.792969 C 685.382812 545.945312 681.511719 549.527344 677.105469 552.535156 C 672.703125 555.542969 667.960938 557.851562 662.878906 559.460938 C 642.679688 554.632812 638.792969 551.097656 640.027344 535.90625 C 641.03125 523.246094 643.679688 510.703125 645.917969 496.214844 C 640.441406 501.101562 635.496094 505.460938 630.726562 509.9375 C 620.597656 519.417969 610.585938 529.015625 600.515625 538.554688 C 595.898438 542.84375 590.816406 546.484375 585.273438 549.476562 C 579.726562 552.46875 573.894531 554.71875 567.773438 556.222656 C 550.109375 550.804688 550.109375 550.804688 538.332031 533.785156 C 521.960938 543.089844 507.769531 557.339844 486.097656 558.8125 L 472.847656 553.335938 C 471.328125 551.800781 469.953125 550.140625 468.730469 548.359375 C 467.507812 546.578125 466.449219 544.703125 465.558594 542.730469 C 464.671875 540.761719 463.960938 538.730469 463.433594 536.632812 C 462.910156 534.535156 462.570312 532.410156 462.425781 530.253906 C 461.71875 523.421875 461.601562 516.472656 461.070312 507.050781 C 434.394531 533.433594 420.085938 567.585938 387.105469 587.84375 Z M 112.21875 575.125 C 124.882812 573.828125 131.003906 565.703125 137.894531 559.519531 C 186.535156 516.296875 234.765625 472.71875 283.40625 429.261719 C 314.558594 401.464844 343.355469 371.902344 364.613281 335.453125 C 378.523438 312.523438 389.355469 288.222656 397.117188 262.550781 C 397.816406 257.054688 397.503906 251.617188 396.175781 246.238281 C 395.40625 245.554688 394.59375 244.929688 393.730469 244.367188 C 392.871094 243.804688 391.972656 243.308594 391.039062 242.875 C 390.105469 242.445312 389.144531 242.085938 388.15625 241.796875 C 387.167969 241.507812 386.164062 241.292969 385.144531 241.152344 C 384.125 241.011719 383.101562 240.945312 382.074219 240.957031 C 381.046875 240.96875 380.023438 241.054688 379.007812 241.214844 C 377.992188 241.375 376.992188 241.613281 376.011719 241.921875 C 375.03125 242.230469 374.078125 242.609375 373.152344 243.058594 C 360.027344 247.726562 347.582031 253.785156 335.816406 261.238281 C 324.050781 268.691406 313.253906 277.351562 303.429688 287.222656 C 272.101562 317.78125 243.148438 350.445312 216.570312 385.210938 C 191.308594 418.25 168.558594 452.9375 148.320312 489.265625 C 133.371094 516.660156 121.335938 545.277344 112.21875 575.125 Z M 443.992188 482.140625 C 442.449219 483.519531 441.132812 485.089844 440.046875 486.851562 C 439.441406 488.769531 439.105469 490.730469 439.046875 492.742188 C 440.5625 491.339844 441.875 489.769531 442.992188 488.03125 C 443.597656 486.113281 443.933594 484.152344 443.992188 482.140625 Z M 954.722656 287.28125 C 953.25 285.871094 951.898438 283.335938 950.25 283.160156 C 923.925781 280.628906 897.25 278.332031 871.101562 276.210938 C 869.335938 276.210938 867.453125 278.214844 864.625 279.863281 L 868.570312 290.226562 C 922.925781 300.472656 935.054688 300.003906 954.722656 287.28125 Z M 954.722656 287.28125 " fill-opacity="1" fill-rule="nonzero"/></svg>