<svg xmlns="http://www.w3.org/2000/svg" xmlns:xlink="http://www.w3.org/1999/xlink" width="2000" zoomAndPan="magnify" viewBox="0 0 1500 449.999984" height="600" preserveAspectRatio="xMidYMid meet" version="1.0"><defs><g/></defs><g fill="#ffffff" fill-opacity="1"><g transform="translate(14.49612, 320.045675)"><g><path d="M 61.074219 0 L 17.480469 -87.296875 L 17.480469 -209.558594 L 0 -227.039062 L 96.039062 -227.039062 L 87.296875 -209.558594 L 87.296875 -87.296875 L 104.777344 -52.445312 L 104.777344 -17.480469 L 113.519531 -17.480469 L 157.226562 -104.777344 L 157.226562 -209.558594 L 148.484375 -227.039062 L 192.074219 -227.039062 L 174.59375 -209.558594 L 174.59375 -104.777344 L 122.261719 0 Z M 61.074219 0 "/></g></g></g><g fill="#ffffff" fill-opacity="1"><g transform="translate(237.109257, 320.045675)"><g><path d="M 0 0 L 17.480469 -17.480469 L 17.480469 -209.558594 L 0 -227.039062 L 104.777344 -227.039062 L 87.296875 -209.558594 L 87.296875 -17.480469 L 104.777344 0 Z M 0 0 "/></g></g></g><g fill="#ffffff" fill-opacity="1"><g transform="translate(372.425357, 320.045675)"><g><path d="M 0 0 L 0 -96.039062 L 78.554688 -17.480469 L 122.261719 -17.480469 L 122.261719 -26.222656 L 8.742188 -139.742188 L 8.742188 -192.074219 L 43.707031 -227.039062 L 122.261719 -227.039062 L 139.742188 -209.558594 L 157.226562 -227.039062 L 157.226562 -148.484375 L 96.039062 -209.558594 L 52.445312 -209.558594 L 52.445312 -200.816406 L 165.964844 -87.296875 L 165.964844 -34.964844 L 131.003906 0 L 34.964844 0 L 17.480469 -17.480469 Z M 0 0 "/></g></g></g><g fill="#ffffff" fill-opacity="1"><g transform="translate(577.556386, 320.045675)"><g><path d="M 43.707031 0 L 17.480469 -26.222656 L 17.480469 -209.558594 L 0 -227.039062 L 96.039062 -227.039062 L 87.296875 -209.558594 L 87.296875 -34.964844 L 69.816406 -17.480469 L 157.226562 -17.480469 L 139.742188 -34.964844 L 139.742188 -209.558594 L 131.003906 -227.039062 L 227.039062 -227.039062 L 209.558594 -209.558594 L 209.558594 -26.222656 L 183.335938 0 Z M 43.707031 0 "/></g></g></g><g fill="#ffffff" fill-opacity="1"><g transform="translate(835.133756, 320.045675)"><g><path d="M 139.742188 -122.261719 L 139.742188 -192.074219 L 122.261719 -209.558594 L 104.777344 -209.558594 L 87.296875 -192.074219 L 87.296875 -122.261719 Z M 0 0 L 17.480469 -17.480469 L 17.480469 -174.59375 L 69.816406 -227.039062 L 157.226562 -227.039062 L 209.558594 -174.59375 L 209.558594 -17.480469 L 227.039062 0 L 131.003906 0 L 139.742188 -17.480469 L 139.742188 -87.296875 L 157.226562 -104.777344 L 69.816406 -104.777344 L 87.296875 -87.296875 L 87.296875 -17.480469 L 96.039062 0 Z M 0 0 "/></g></g></g><g fill="#ffffff" fill-opacity="1"><g transform="translate(1092.711126, 320.045675)"><g><path d="M 0 0 L 17.480469 -17.480469 L 17.480469 -209.558594 L 0 -227.039062 L 96.039062 -227.039062 L 87.296875 -209.558594 L 87.296875 -34.964844 L 69.816406 -17.480469 L 139.742188 -17.480469 L 157.226562 -34.964844 L 157.226562 0 Z M 0 0 "/></g></g></g><g fill="#ffffff" fill-opacity="1"><g transform="translate(1280.360069, 320.045675)"><g><path d="M 0 0 L 0 -96.039062 L 78.554688 -17.480469 L 122.261719 -17.480469 L 122.261719 -26.222656 L 8.742188 -139.742188 L 8.742188 -192.074219 L 43.707031 -227.039062 L 122.261719 -227.039062 L 139.742188 -209.558594 L 157.226562 -227.039062 L 157.226562 -148.484375 L 96.039062 -209.558594 L 52.445312 -209.558594 L 52.445312 -200.816406 L 165.964844 -87.296875 L 165.964844 -34.964844 L 131.003906 0 L 34.964844 0 L 17.480469 -17.480469 Z M 0 0 "/></g></g></g></svg>